<svg xmlns="http://www.w3.org/2000/svg" viewBox="0 0 108 108" role="img" aria-label="Virga">
  <defs>
    <linearGradient id="virgaStreak" gradientUnits="userSpaceOnUse" x1="54" y1="26" x2="54" y2="60">
      <stop offset="0%" stop-color="#1E6FD9"/>
      <stop offset="55%" stop-color="#1FA8A0"/>
      <stop offset="100%" stop-color="#1FA8A0" stop-opacity="0"/>
    </linearGradient>
  </defs>
  <path d="M47,33 A7,7 0 0 1 61,33 L61,53 A7,7 0 0 1 47,53 Z" fill="url(#virgaStreak)"/>
  <path d="M50,67 a4,4 0 1 0 8,0 a4,4 0 1 0 -8,0 Z" fill="#1FA8A0" opacity="1"/>
  <path d="M51.4,75 a2.6,2.6 0 1 0 5.2,0 a2.6,2.6 0 1 0 -5.2,0 Z" fill="#1FA8A0" opacity=".8"/>
  <path d="M52.3,81 a1.7,1.7 0 1 0 3.4,0 a1.7,1.7 0 1 0 -3.4,0 Z" fill="#1FA8A0" opacity=".6"/>
</svg>
